<svg width="58" height="76" viewBox="0 0 58 76" fill="none" xmlns="http://www.w3.org/2000/svg">
<path d="M2.5949 58.5893C2.39937 58.1667 2.21597 57.738 2.04317 57.3062C1.86886 56.8744 1.70668 56.4397 1.5551 56.0003C1.40201 55.5595 1.26105 55.1171 1.13221 54.6702C1.00185 54.2233 0.88211 53.7734 0.774492 53.3204C0.666874 52.8689 0.569866 52.4129 0.483469 51.9554C0.398587 51.4979 0.324316 51.0389 0.260654 50.5784C0.198509 50.1178 0.146973 49.6542 0.106048 49.1907C0.0666384 48.7271 0.0378394 48.2635 0.0196505 47.7984C0.00297716 47.3334 -0.00308544 46.8683 0.00146151 46.4032C0.00752449 45.9366 0.0241976 45.4715 0.0529969 45.0079C0.0817961 44.5428 0.121206 44.0793 0.172741 43.6172C0.222761 43.1536 0.286422 42.6931 0.359178 42.2326C0.433449 41.7735 0.518331 41.316 0.615339 40.86C0.71083 40.404 0.818448 39.9511 0.938192 39.5011C1.05642 39.0512 1.18526 38.6043 1.32622 38.1604C1.46719 37.7165 1.61876 37.2757 1.78095 36.8394C1.94313 36.4031 2.11593 35.9698 2.29933 35.5411C2.48274 35.1139 2.67675 34.6897 2.88138 34.2716C3.086 33.8534 3.29972 33.4399 3.52405 33.0308C3.7499 32.6233 3.98333 32.2203 4.22888 31.8234C4.47291 31.4265 4.72756 31.0357 4.9913 30.6524C5.25352 30.2676 5.52787 29.8904 5.8098 29.5192C6.09173 29.148 6.38275 28.7845 6.68287 28.4269C6.98299 28.0709 7.2922 27.721 7.60899 27.3801C7.92578 27.0377 8.25167 26.7044 8.58513 26.3787C8.91859 26.053 9.25964 25.7349 9.60977 25.4258C9.9584 25.1168 10.3146 24.8168 10.6784 24.526C11.0437 24.2336 11.4135 23.9518 11.7924 23.6776C12.1699 23.4049 12.5534 23.1398 12.9444 22.8853C13.3355 22.6308 13.7326 22.3869 14.1358 22.1505C14.5375 21.9157 14.9467 21.69 15.3605 21.4749C15.7743 21.2598 16.1927 21.0552 16.6171 20.8613C16.7323 20.8068 16.855 20.778 16.9824 20.7735C17.1097 20.7689 17.2325 20.7886 17.3522 20.8325C17.4719 20.8765 17.5781 20.9416 17.672 21.028C17.766 21.1143 17.8388 21.2158 17.8918 21.331C17.9449 21.4476 17.9752 21.5688 17.9797 21.6961C17.9843 21.8233 17.9646 21.946 17.9191 22.0657C17.8751 22.1854 17.81 22.2914 17.7236 22.3854C17.6356 22.4793 17.5341 22.552 17.4189 22.605C4.10155 28.7223 -1.76438 44.5035 4.34407 57.7849C10.451 71.0679 26.2527 76.8974 39.57 70.7801C39.6852 70.727 39.808 70.6982 39.9353 70.6922C40.0626 70.6876 40.1854 70.7073 40.3051 70.7513C40.4249 70.7952 40.531 70.8603 40.625 70.9467C40.7189 71.033 40.7917 71.1345 40.8447 71.2512C40.8978 71.3663 40.9266 71.4875 40.9327 71.6148C40.9372 71.742 40.9175 71.8647 40.872 71.9844C40.8281 72.1041 40.7629 72.2102 40.6765 72.3041C40.5886 72.398 40.487 72.4707 40.3718 72.5253C39.9474 72.7192 39.52 72.904 39.0865 73.0767C38.653 73.2509 38.2164 73.4145 37.7754 73.566C37.3358 73.719 36.8902 73.8599 36.443 73.9902C35.9959 74.122 35.5442 74.2402 35.091 74.3492C34.6378 74.4583 34.1815 74.5553 33.7223 74.6416C33.2645 74.728 32.8037 74.8022 32.3429 74.8658C31.8806 74.9295 31.4168 74.9825 30.953 75.0234C30.4877 75.0643 30.0223 75.0931 29.557 75.1113C29.0901 75.1294 28.6248 75.1355 28.158 75.131C27.6926 75.1264 27.2258 75.1097 26.7604 75.0825C26.2951 75.0552 25.8313 75.0158 25.3675 74.9658C24.9037 74.9158 24.4413 74.8537 23.9806 74.781C23.5213 74.7083 23.062 74.6235 22.6058 74.528C22.1495 74.4326 21.6963 74.3265 21.2446 74.2084C20.7945 74.0902 20.3473 73.9614 19.9017 73.822C19.4576 73.6827 19.0165 73.5327 18.58 73.3706C18.1419 73.21 17.7099 73.0373 17.281 72.8555C16.852 72.6722 16.4276 72.4798 16.0093 72.2768C15.5894 72.0738 15.1756 71.8602 14.7663 71.636C14.3586 71.4133 13.9554 71.18 13.5583 70.9361C13.1612 70.6922 12.7701 70.4392 12.3851 70.1771C12.0016 69.915 11.6227 69.6423 11.2513 69.3621C10.88 69.0803 10.5162 68.7909 10.16 68.491C9.80227 68.1925 9.45365 67.885 9.11109 67.5684C8.77005 67.2533 8.43507 66.9291 8.10919 66.5958C7.78482 66.264 7.46651 65.9232 7.1573 65.5747C6.84809 65.2278 6.54797 64.8718 6.25695 64.5097C5.96441 64.1461 5.68248 63.7765 5.40964 63.3993C5.13529 63.0236 4.87155 62.6403 4.61691 62.251C4.36226 61.8601 4.11823 61.4647 3.88329 61.0632C3.64835 60.6618 3.4225 60.2543 3.20878 59.8422C2.99354 59.4286 2.78892 59.012 2.5949 58.5893Z" fill="white"/>
<path d="M54.8688 58.4057C54.6808 58.8314 54.4807 59.251 54.2716 59.6661C54.0609 60.0812 53.8411 60.4918 53.6122 60.8962C53.3818 61.3007 53.1423 61.6992 52.8922 62.0915C52.6437 62.4854 52.3845 62.8717 52.1162 63.252C51.8464 63.6322 51.569 64.0049 51.2825 64.3715C50.996 64.7381 50.699 65.0972 50.3943 65.4486C50.0896 65.8001 49.7774 66.144 49.456 66.4818C49.1332 66.8181 48.8043 67.1469 48.4663 67.4665C48.1282 67.7862 47.7827 68.0983 47.4295 68.4028C47.0763 68.7057 46.7171 68.9996 46.3488 69.286C45.9804 69.5708 45.606 69.848 45.2256 70.1146C44.8436 70.3828 44.4556 70.6403 44.0615 70.8888C43.6674 71.1372 43.2688 71.3751 42.8625 71.6038C42.4563 71.8326 42.0456 72.0507 41.6287 72.2598C41.2119 72.4689 40.7905 72.6673 40.3646 72.8552C39.9387 73.043 39.5067 73.2203 39.0717 73.3869C38.6366 73.5536 38.1986 73.7096 37.756 73.855C37.3119 73.9989 36.8663 74.1338 36.4161 74.2565C35.9674 74.3807 35.5157 74.4928 35.0595 74.5943C34.6048 74.6943 34.1485 74.7852 33.6877 74.864C33.2285 74.9427 32.7677 75.0094 32.3054 75.0655C31.8416 75.1215 31.3777 75.167 30.9124 75.2003C30.4471 75.2336 29.9817 75.2563 29.5164 75.2669C29.0495 75.2775 28.5842 75.276 28.1174 75.2639C27.6505 75.2518 27.1852 75.2276 26.7198 75.1927C26.256 75.1579 25.7907 75.1109 25.3284 75.0533C24.8661 74.9958 24.4038 74.9261 23.9445 74.8458C23.4852 74.7655 23.029 74.6746 22.5728 74.5716C22.118 74.4686 21.6663 74.355 21.2162 74.2292C20.7675 74.105 20.3219 73.9686 19.8778 73.8217C19.4352 73.6763 18.9971 73.5187 18.5621 73.349C18.1271 73.1809 17.6966 73.0021 17.2692 72.8127C17.1525 72.7612 17.0509 72.69 16.963 72.5976C16.8751 72.5052 16.8084 72.3992 16.7614 72.2795C16.7159 72.1613 16.6947 72.0386 16.6977 71.9114C16.7008 71.7841 16.728 71.6614 16.7796 71.5447C16.8311 71.4296 16.9039 71.3266 16.9963 71.2387C17.0888 71.1524 17.1949 71.0857 17.3131 71.0388C17.4329 70.9933 17.5556 70.9721 17.683 70.9766C17.8118 70.9797 17.9331 71.0069 18.0498 71.0584C31.4429 77.0076 47.1703 70.9812 53.1105 57.624C59.0507 44.2668 52.9877 28.5599 39.5946 22.6107C39.4779 22.5592 39.3763 22.4865 39.2884 22.3941C39.2005 22.3017 39.1338 22.1956 39.0868 22.0775C39.0413 21.9578 39.0201 21.8351 39.0232 21.7078C39.0262 21.5806 39.0535 21.4594 39.105 21.3427C39.1565 21.2261 39.2293 21.1246 39.3218 21.0367C39.4142 20.9488 39.5203 20.8822 39.6386 20.8367C39.7583 20.7913 39.8811 20.7701 40.0084 20.7731C40.1372 20.7761 40.2585 20.8049 40.3752 20.8564C40.8011 21.0458 41.2225 21.2458 41.6393 21.4548C42.0562 21.6654 42.4669 21.8851 42.8732 22.1153C43.2779 22.3456 43.678 22.585 44.0721 22.8349C44.4662 23.0849 44.8542 23.344 45.2347 23.6121C45.6167 23.8802 45.991 24.159 46.3579 24.4453C46.7262 24.7332 47.0854 25.0286 47.4386 25.3331C47.7918 25.6376 48.1373 25.9512 48.4754 26.2723C48.8134 26.5935 49.1423 26.9238 49.4636 27.2601C49.785 27.5979 50.0987 27.9433 50.4034 28.2963C50.7065 28.6493 51.0036 29.0098 51.2901 29.378C51.5766 29.7446 51.854 30.1188 52.1222 30.5005C52.3905 30.8808 52.6497 31.2686 52.8998 31.6625C53.1484 32.0549 53.3879 32.4548 53.6183 32.8608C53.8472 33.2653 54.0669 33.6758 54.2776 34.0924C54.4868 34.5091 54.6854 34.9302 54.8748 35.3559C55.0643 35.7816 55.2416 36.2118 55.4099 36.6466C55.5781 37.0799 55.7343 37.5192 55.8813 37.9616C56.0268 38.404 56.1617 38.8494 56.286 39.2978C56.4103 39.7462 56.524 40.1976 56.6255 40.6521C56.7286 41.1066 56.818 41.5626 56.8984 42.0216C56.9787 42.4807 57.0469 42.9412 57.103 43.4033C57.1606 43.8653 57.2061 44.3289 57.2394 44.7925C57.2743 45.256 57.297 45.7211 57.3076 46.1862C57.3197 46.6528 57.3197 47.1179 57.3076 47.583C57.297 48.0481 57.2727 48.5131 57.2394 48.9767C57.2045 49.4403 57.1591 49.9039 57.1015 50.3659C57.0439 50.828 56.9757 51.287 56.8953 51.746C56.8165 52.205 56.7256 52.661 56.6225 53.1155C56.5209 53.5685 56.4073 54.0199 56.283 54.4684C56.1587 54.9168 56.0223 55.3622 55.8767 55.803C55.7297 56.2454 55.5736 56.6832 55.4053 57.1165C55.2371 57.5513 55.0582 57.98 54.8688 58.4057Z" fill="white"/>
<path d="M28.008 15.8553C26.0981 15.8553 24.5445 14.3025 24.5445 12.3936C24.5445 10.4848 26.0981 8.93201 28.008 8.93201C29.9178 8.93201 31.4715 10.4848 31.4715 12.3936C31.4715 14.3025 29.9178 15.8553 28.008 15.8553ZM28.008 10.4091C26.9136 10.4091 26.0223 11.2999 26.0223 12.3936C26.0223 13.4874 26.9136 14.3782 28.008 14.3782C29.1023 14.3782 29.9936 13.4874 29.9936 12.3936C29.9936 11.2999 29.1023 10.4091 28.008 10.4091Z" fill="white"/>
<path d="M14.0904 34.9783L26.718 15.1811" stroke="white" stroke-width="1.50905" stroke-linecap="round"/>
<path d="M19.9808 32.8863L26.7092 15.4797" stroke="white" stroke-width="1.5082" stroke-linecap="round"/>
<path d="M36.3384 33.1618L29.1932 15.2644" stroke="white" stroke-width="1.50572" stroke-linecap="round"/>
<path d="M42.0983 34.9722L30.4043 15.2962" stroke="white" stroke-width="1.5026" stroke-linecap="round"/>
<path d="M14.7147 35.3269L19.7106 33.2438" stroke="white" stroke-width="1.50983" stroke-linecap="round"/>
<path d="M16.0108 48.3676L16.0836 35.1118" stroke="white" stroke-width="1.50162" stroke-linecap="round"/>
<path d="M20.6812 46.8057L20.666 32.9622" stroke="white" stroke-width="1.50914" stroke-linecap="round"/>
<path d="M35.4745 46.8071L35.4593 32.9621" stroke="white" stroke-width="1.50914" stroke-linecap="round"/>
<path d="M39.6051 48.3613L39.5884 34.5178" stroke="white" stroke-width="1.50914" stroke-linecap="round"/>
<path d="M34.7078 33.389H21.1661" stroke="white" stroke-width="1.51255" stroke-linecap="round"/>
<path d="M41.4935 35.3026L36.2491 32.956" stroke="white" stroke-width="1.49358" stroke-linecap="round"/>
<path d="M27.705 73.1335V38.5096" stroke="white" stroke-width="1.5057" stroke-linecap="round"/>
<path d="M32.0944 73.1366L32.0201 49.3475" stroke="white" stroke-width="1.50339" stroke-linecap="round"/>
<path d="M23.7866 73.1351L23.7124 49.3445" stroke="white" stroke-width="1.50339" stroke-linecap="round"/>
<path d="M7.95735 55.8878L27.6226 47.4905" stroke="white" stroke-width="1.50552" stroke-linecap="round"/>
<path d="M7.8951 59.1081L23.5982 54.9027" stroke="white" stroke-width="1.50961" stroke-linecap="round"/>
<path d="M7.72443 62.502L23.085 62.5414" stroke="white" stroke-width="1.50752" stroke-linecap="round"/>
<path d="M11.0424 67.333H23.0865" stroke="white" stroke-width="1.50809" stroke-linecap="round"/>
<path d="M7.71814 63.8168V53.5803" stroke="white" stroke-width="1.50672" stroke-linecap="round"/>
<path d="M5.52929 54.4803L27.2909 43.444" stroke="white" stroke-width="1.50357" stroke-linecap="round"/>
<path d="M49.606 54.0698L28.2613 43.5743" stroke="white" stroke-width="1.50886" stroke-linecap="round"/>
<path d="M47.6988 56.556L28.3351 47.4831" stroke="white" stroke-width="1.5066" stroke-linecap="round"/>
<path d="M47.2352 58.9326L32.8826 55.4437" stroke="white" stroke-width="1.50044" stroke-linecap="round"/>
<path d="M47.3866 62.4851L32.6247 62.5048" stroke="white" stroke-width="1.50543" stroke-linecap="round"/>
<path d="M45.2056 67.3541H32.8522" stroke="white" stroke-width="1.50291" stroke-linecap="round"/>
<path d="M47.9488 64.9497V53.5195" stroke="white" stroke-width="1.51043" stroke-linecap="round"/>
<path d="M24.5263 38.7112H22.9863C22.9863 37.2159 24.2004 36.0024 25.698 36.0024C27.194 36.0024 28.4082 37.2159 28.4082 38.7112H26.8712C26.8666 38.0673 26.3422 37.5477 25.698 37.5477C25.0523 37.5477 24.5294 38.0673 24.5263 38.7112Z" fill="white"/>
<path d="M28.493 38.7323H26.9545C26.9545 37.2356 28.1686 36.0221 29.6647 36.0221C31.1622 36.0221 32.3748 37.2356 32.3748 38.7323H30.8379C30.8348 38.0885 30.3104 37.5673 29.6647 37.5673C29.019 37.5673 28.496 38.0885 28.493 38.7323Z" fill="white"/>
<path d="M23.7805 44.7375V38.7369" stroke="white" stroke-width="1.51615" stroke-linecap="round"/>
<path d="M31.5652 44.7375V38.7369" stroke="white" stroke-width="1.51615" stroke-linecap="round"/>
<path d="M18.6285 47.7706L18.6209 40.5671" stroke="white" stroke-width="1.51628" stroke-linecap="round"/>
<path d="M37.3239 47.7706L37.3163 40.5671" stroke="white" stroke-width="1.51628" stroke-linecap="round"/>
<path d="M16.4487 39.8943L18.4177 40.4669" stroke="white" stroke-width="1.53446" stroke-linecap="round"/>
<path d="M37.6294 40.4438L39.3119 39.7803" stroke="white" stroke-width="1.50521" stroke-linecap="round"/>
<path d="M27.9926 9.11707V1.00002" stroke="white" stroke-width="1.51187" stroke-linecap="round"/>
<path d="M25.2766 2.87085L30.421 2.83903" stroke="white" stroke-width="1.49359" stroke-linecap="round"/>
<path d="M26.0978 5.99622L29.9584 6.8567" stroke="white" stroke-width="1.48599" stroke-linecap="round"/>
</svg>
