<svg width="41" height="28" viewBox="0 0 41 28" fill="none" xmlns="http://www.w3.org/2000/svg">
<path fill-rule="evenodd" clip-rule="evenodd" d="M38.5419 2.22988C39.1718 2.84619 39.6257 3.6132 39.8584 4.45453C41.1983 9.73126 40.8887 18.0651 39.8844 23.5454C39.6518 24.3868 39.1979 25.1538 38.5679 25.7701C37.938 26.3864 37.1541 26.8305 36.2942 27.0582C33.1462 27.8982 20.4763 27.8982 20.4763 27.8982C20.4763 27.8982 7.8064 27.8982 4.65843 27.0582C3.79853 26.8305 3.01459 26.3864 2.38468 25.7701C1.75477 25.1538 1.30087 24.3868 1.06819 23.5454C-0.279457 18.2916 0.089974 9.95272 1.04217 4.47999C1.27486 3.63865 1.72875 2.87164 2.35866 2.25533C2.98857 1.63902 3.77251 1.19492 4.63241 0.967261C7.78038 0.127261 20.4503 0.101807 20.4503 0.101807C20.4503 0.101807 33.1202 0.101807 36.2682 0.941807C37.1281 1.16947 37.912 1.61357 38.5419 2.22988ZM26.9283 14L16.4178 19.9564V8.04362L26.9283 14Z" fill="white"/>
</svg>
